<?xml version="1.0" encoding="utf-8"?>
<!DOCTYPE svg PUBLIC "-//W3C//DTD SVG 1.1//EN" "http://www.w3.org/Graphics/SVG/1.1/DTD/svg11.dtd">
<svg version="1.1" id="Layer_1" xmlns="http://www.w3.org/2000/svg" xmlns:xlink="http://www.w3.org/1999/xlink" x="0px" y="0px"
	 width="800px" height="600px" viewBox="0 0 800 600" enable-background="new 0 0 800 600" xml:space="preserve">
<g id="Layer_1_1_">
	<g>
		<path d="M426.78,73.221C379.563,26.004,316.782,0,250,0S120.437,26.004,73.22,73.221C26.003,120.438,0,183.219,0,250
			S26.003,379.563,73.22,426.78c2.055,2.056,4.149,4.055,6.261,6.027l70.831-70.83C119.464,334.484,100,294.476,100,250
			c0-82.71,67.29-150,150-150c65.185,0,120.782,41.8,141.42,99.999H255.833c-0.76,0-1.51,0.058-2.256,0.142
			C252.394,200.058,251.204,200,250,200c-27.614,0-50,22.386-50,50s22.386,50,50,50c1.204,0,2.393-0.059,3.576-0.142
			c0.746,0.083,1.497,0.143,2.256,0.143h157.501c0.004,0,0.008,0,0.013,0h81.675c3.288-16.281,4.979-33.01,4.979-50
			C500.001,183.219,473.997,120.438,426.78,73.221z"/>
	</g>
</g>
<g id="Layer_3" display="none">
	<g display="inline">
		<rect x="208" y="360" fill="none" width="376" height="132"/>
		
			<text transform="matrix(0.903 0 0 1 208 474.2463)" font-family="'CenturyGothic-Bold'" font-size="172.86" letter-spacing="-15.504">e</text>
		
			<text transform="matrix(0.9624 0 0 1 292.3105 474.2444)" font-family="'CenturyGothic-Bold'" font-size="176.89" letter-spacing="-2.078">v</text>
		
			<text transform="matrix(0.9624 0 0 1 384.25 474.2444)" font-family="'CenturyGothic-Bold'" font-size="176.89" letter-spacing="-5.195">i</text>
		
			<text transform="matrix(1.0597 0 0 1 418.2539 474.2463)" font-family="'AlteDIN1451Mittelschrift'" font-size="191.62" letter-spacing="2.831">l</text>
	</g>
</g>
<g id="Layer_4">
	<g>
		<path d="M294.221,425.255h-72.704c1.048,6.983,3.854,12.537,8.414,16.657c4.561,4.125,10.376,6.187,17.451,6.187
			c8.456,0,15.723-3.22,21.803-9.661l19.067,9.752c-4.754,7.344-10.445,12.776-17.079,16.298
			c-6.631,3.521-14.507,5.281-23.626,5.281c-14.149,0-25.672-4.859-34.57-14.581c-8.898-9.722-13.348-21.897-13.348-36.523
			c0-14.991,4.436-27.435,13.305-37.337c8.871-9.9,19.993-14.853,33.368-14.853c14.204,0,25.754,4.952,34.653,14.853
			c8.898,9.903,13.348,22.979,13.348,39.232L294.221,425.255z M271.589,405.843c-1.496-5.477-4.443-9.933-8.845-13.362
			c-4.4-3.432-9.507-5.148-15.32-5.148c-6.311,0-11.847,1.928-16.608,5.778c-2.99,2.408-5.757,6.652-8.303,12.731L271.589,405.843
			L271.589,405.843z"/>
		<path d="M286.068,366.712h25.149l24.852,59.319l24.798-59.319h25.021L344.024,467.24h-16.003L286.068,366.712z"/>
		<path d="M406.235,325.318c4.327,0,8.038,1.603,11.133,4.806s4.646,7.084,4.646,11.643c0,4.496-1.533,8.331-4.599,11.503
			c-3.065,3.175-6.732,4.759-10.998,4.759c-4.39,0-8.131-1.618-11.228-4.852c-3.096-3.233-4.642-7.16-4.642-11.781
			c0-4.435,1.531-8.223,4.598-11.364C398.21,326.89,401.906,325.318,406.235,325.318z M393.894,366.712h24.683V467.24h-24.683
			V366.712z"/>
		<path d="M435.892,442.216V321.509h22.539v119.009c0,4.804,2.804,7.206,8.413,7.206h7.656v19.618h-9.921
			c-8.198,0-15.028-1.853-20.492-5.556S435.892,451.562,435.892,442.216z"/>
	</g>
</g>
<g id="Layer_2" display="none">
	<path display="inline" fill="none" stroke="#000000" stroke-width="100" d="M794,247c0,110.465-89.533,200-200,200
		c-110.466,0-200-89.534-200-200c0-110.465,89.534-200,200-200C704.467,47,794,136.536,794,247z"/>
</g>
</svg>
